<svg xmlns="http://www.w3.org/2000/svg" height="1000" width="1000"><path d="M169.698 473.991q22.799 0 35.382 12.012 12.584 12.013 13.974 27.294H203.2q-2.697-11.604-10.787-18.386-8.008-6.783-22.554-6.783-17.732 0-28.683 12.503-10.868 12.42-10.868 38.16 0 21.084 9.806 34.24 9.888 13.074 29.417 13.074 17.978 0 27.376-13.81 4.985-7.273 7.436-19.121h15.853q-2.125 18.957-14.055 31.788-14.3 15.444-38.57 15.444-20.92 0-35.137-12.666-18.712-16.752-18.712-51.725 0-26.558 14.055-43.555 15.2-18.468 41.92-18.468zm-3.27 0zM250.679 558.561q.572 10.215 4.821 16.588 8.09 11.931 28.52 11.931 9.152 0 16.67-2.615 14.545-5.066 14.545-18.14 0-9.807-6.129-13.974-6.21-4.086-19.448-7.11l-16.262-3.677q-15.935-3.595-22.554-7.926-11.44-7.518-11.44-22.472 0-16.18 11.195-26.558t31.706-10.378q18.876 0 32.034 9.153 13.238 9.07 13.238 29.091h-15.28q-1.227-9.642-5.23-14.79-7.437-9.398-25.25-9.398-14.383 0-20.675 6.048-6.292 6.047-6.292 14.055 0 8.825 7.354 12.911 4.822 2.615 21.818 6.537l16.833 3.84q12.176 2.78 18.794 7.6 11.44 8.417 11.44 24.434 0 19.94-14.545 28.52-14.464 8.58-33.666 8.58-22.39 0-35.057-11.44-12.666-11.36-12.421-30.807h15.28zm32.85-84.576zM362.137 558.561q.572 10.215 4.822 16.588 8.09 11.931 28.519 11.931 9.152 0 16.67-2.615 14.545-5.066 14.545-18.14 0-9.807-6.128-13.974-6.21-4.086-19.449-7.11l-16.261-3.677q-15.935-3.595-22.554-7.926-11.44-7.518-11.44-22.472 0-16.18 11.195-26.558t31.706-10.378q18.876 0 32.034 9.153 13.237 9.07 13.237 29.091h-15.28q-1.226-9.642-5.23-14.79-7.436-9.398-25.25-9.398-14.383 0-20.674 6.048-6.293 6.047-6.293 14.055 0 8.825 7.355 12.911 4.821 2.615 21.817 6.537l16.834 3.84q12.176 2.78 18.794 7.6 11.44 8.417 11.44 24.434 0 19.94-14.545 28.52-14.464 8.58-33.667 8.58-22.39 0-35.057-11.44-12.666-11.36-12.42-30.807h15.28zm32.85-84.576zM118.697 686.439h23.288L176.47 787.93l34.239-101.491h23.045V806.48h-15.445v-70.85q0-3.676.164-12.175t.163-18.222L184.397 806.48H168.3l-34.484-101.246v3.677q0 4.412.163 13.483.245 8.989.245 13.238v70.849h-15.526V686.439zM310.48 683.185q31.788 0 47.068 20.428 11.93 15.935 11.93 40.777 0 26.885-13.646 44.699-16.017 20.92-45.679 20.92-27.7 0-43.555-18.305-14.137-17.651-14.137-44.617 0-24.352 12.094-41.675 15.526-22.227 45.924-22.227zm1.635 112.278q21.492 0 31.051-15.362 9.643-15.445 9.643-35.465 0-21.165-11.113-34.075-11.032-12.911-30.236-12.911-18.632 0-30.399 12.829-11.767 12.748-11.767 37.672 0 19.939 10.051 33.666 10.133 13.647 32.768 13.647zm-1.144-112.278zM434.862 792.598q8.254 0 13.565-1.716 9.48-3.187 15.526-12.258 4.822-7.272 6.946-18.632 1.226-6.783 1.226-12.584 0-22.309-8.907-34.648-8.833-12.329-28.525-12.329h-28.846v92.176h29.01zm-45.353-106.15h48.62q24.76 0 38.407 17.57 12.175 15.852 12.175 40.612 0 19.122-7.19 34.567-12.667 27.293-43.556 27.293h-48.459V686.448zM527.354 686.439v74.198q0 13.074 4.903 21.735 7.272 13.075 24.515 13.075 20.674 0 28.11-14.137 4.004-7.681 4.004-20.674v-74.198h16.507v67.416q0 22.145-5.965 34.076-10.95 21.735-41.348 21.735-30.399 0-41.266-21.735-5.965-11.93-5.965-34.076v-67.416h16.507zm30.806 0zM630.333 686.439h16.261v105.74h60.797v14.3h-77.058V686.439zM725.037 686.439h87.518v14.709h-71.666v36.446h66.273v13.892h-66.273v40.695h72.891v14.3h-88.745V686.44zm44.372 0zM845.886 767.755q.572 10.214 4.821 16.588 8.09 11.93 28.52 11.93 9.152 0 16.67-2.614 14.545-5.066 14.545-18.141 0-9.806-6.129-13.974-6.21-4.085-19.448-7.109l-16.262-3.677q-15.934-3.596-22.553-7.926-11.44-7.518-11.44-22.473 0-16.18 11.195-26.557Q857 683.424 877.51 683.424q18.876 0 32.033 9.152 13.238 9.07 13.238 29.092h-15.28q-1.226-9.642-5.23-14.79-7.437-9.398-25.25-9.398-14.383 0-20.675 6.047-6.292 6.047-6.292 14.055 0 8.826 7.355 12.912 4.821 2.615 21.817 6.537l16.834 3.84q12.176 2.779 18.794 7.6 11.44 8.417 11.44 24.434 0 19.94-14.546 28.52-14.463 8.58-33.666 8.58-22.39 0-35.057-11.44-12.666-11.36-12.42-30.807h15.28zm32.85-84.576z"/><path stroke="#000" stroke-width="5" fill="none" d="M76.205 152.49h695.02v695.02H76.205z"/></svg>